<?xml version="1.0" encoding="UTF-8"?>
<svg id="Layer_1" data-name="Layer 1" xmlns="http://www.w3.org/2000/svg" viewBox="0 0 279.76 99.01">
  <defs>
    <style>
      .cls-1 {
        fill: none;
        stroke: #c6b299;
        stroke-linecap: round;
        stroke-linejoin: round;
        stroke-width: 5px;
      }
    </style>
  </defs>
  <path class="cls-1" d="M99.35,84.72s-13.54,5.81-4.5,8.09,13.29-2.76,13.29-2.76c0,0,.84,8.53,18.96,3.08s32.23-8.89,32.23-8.89c0,0-8.18,15.48,19.72,3.15,0,0,4.43,21.11,60.64-27.32,0,0-31.7,30.46-17.83,30.05,13.87-.4,35.42-10.17,35.42-10.17,0,0-18.17,15.42,1.61,8.59l5.53-1.86s5.22,1.96,12.85,2.59"/>
  <path class="cls-1" d="M122.82,4.41L46.13,96.51s45.89-63.11,10.24-78.32C20.72,2.98-13.07,30.96,10.14,29.01c23.22-1.95,129.64-34.75,160.32-24.55s-47.88,49.89-83.24,59.29"/>
</svg>